<?xml version="1.0" standalone="no"?><!DOCTYPE svg PUBLIC "-//W3C//DTD SVG 1.1//EN" "http://www.w3.org/Graphics/SVG/1.1/DTD/svg11.dtd"><svg t="1675180791527" class="icon" viewBox="0 0 1024 1024" version="1.1" xmlns="http://www.w3.org/2000/svg" p-id="11666" xmlns:xlink="http://www.w3.org/1999/xlink" width="200" height="200"><path d="M562.93376 371.24096a172.7488 172.7488 0 1 1 309.00224 154.17344A489.7792 489.7792 0 0 1 1003.52 860.16a20.48 20.48 0 0 1-40.96 0c0-248.832-201.728-450.56-450.56-450.56S61.44 611.328 61.44 860.16a20.48 20.48 0 0 1-40.96 0c0-271.4624 220.0576-491.52 491.52-491.52 17.2032 0 34.2016 0.88064 50.93376 2.60096z m44.11392 6.57408a489.984 489.984 0 0 1 233.0624 116.34688 131.7888 131.7888 0 0 0-233.0624-116.34688zM921.6 860.16a20.48 20.48 0 0 1-40.96 0c0-203.59168-165.04832-368.64-368.64-368.64S143.36 656.56832 143.36 860.16a20.48 20.48 0 0 1-40.96 0c0-226.22208 183.37792-409.6 409.6-409.6s409.6 183.37792 409.6 409.6z m-81.92 0a20.48 20.48 0 0 1-40.96 0c0-158.35136-128.36864-286.72-286.72-286.72s-286.72 128.36864-286.72 286.72a20.48 20.48 0 0 1-40.96 0c0-180.98176 146.69824-327.68 327.68-327.68s327.68 146.69824 327.68 327.68z m-81.92 0a20.48 20.48 0 0 1-40.96 0c0-113.11104-91.68896-204.8-204.8-204.8s-204.8 91.68896-204.8 204.8a20.48 20.48 0 0 1-40.96 0c0-135.72096 110.03904-245.76 245.76-245.76s245.76 110.03904 245.76 245.76z m-10.32192-683.25376a20.48 20.48 0 1 1 40.3456 7.10656l-9.97376 56.46336a20.48 20.48 0 1 1-40.3456-7.10656l9.97376-56.46336z m190.7712 102.93248a20.48 20.48 0 0 1 23.49056 33.56672l-46.96064 32.89088a20.48 20.48 0 1 1-23.51104-33.56672l46.98112-32.89088z m62.09536 207.70816a20.48 20.48 0 0 1-7.10656 40.3456l-56.46336-9.97376a20.48 20.48 0 0 1 7.10656-40.3456l56.46336 9.97376zM609.30048 268.9024a20.48 20.48 0 0 1-33.54624 23.49056l-32.37888-46.22336a20.48 20.48 0 0 1 33.54624-23.49056l32.3584 46.22336zM389.12 228.57728C389.12 272.05632 353.5872 307.2 309.82144 307.2H166.85056C131.2768 307.2 102.4 278.60992 102.4 243.22048c0-25.7024 15.36-48.128 37.74464-58.24512C144.24064 138.6496 183.6032 102.4 231.424 102.4c34.18112 0 64.94208 18.7392 80.6912 47.59552 42.68032 1.16736 77.0048 35.84 77.0048 78.58176zM309.41184 266.24h0.34816c21.2992 0 38.4-16.91648 38.4-37.66272s-17.1008-37.64224-38.2976-37.64224c-2.37568 0-4.73088 0.2048-7.04512 0.6144l-17.6128 3.23584-5.5296-16.9984C272.9984 157.40928 253.5424 143.36 231.424 143.36 203.3664 143.36 180.75648 165.62176 180.75648 192.94208c0 1.72032 0.08192 3.42016 0.26624 5.09952l2.048 19.6608-19.59936 2.74432A23.18336 23.18336 0 0 0 143.36 243.22048C143.36 255.87712 153.82528 266.24 166.85056 266.24h142.58176z" fill="#FF7AB0" p-id="11667"></path></svg>